<svg xmlns="http://www.w3.org/2000/svg" viewBox="0 0 1000 1250" width="1000" height="1250" role="img" aria-label="Silk Scrunchie Set in Bone / Clay / Black">
  <defs>
    <linearGradient id="bg-silk-scrunchie-set-multi" x1="0" y1="0" x2=".3" y2="1">
      <stop offset="0" stop-color="#d2cbc6"/><stop offset="1" stop-color="#beb4ae"/>
    </linearGradient>
    <radialGradient id="glow-silk-scrunchie-set-multi" cx=".5" cy=".32" r=".62">
      <stop offset="0" stop-color="#ffffff" stop-opacity=".55"/><stop offset="1" stop-color="#ffffff" stop-opacity="0"/>
    </radialGradient>
    <linearGradient id="g-silk-scrunchie-set-multi" x1=".15" y1="0" x2=".85" y2="1">
      <stop offset="0" stop-color="#d2beb1"/><stop offset=".55" stop-color="#cbb3a4"/><stop offset="1" stop-color="#bea08d"/>
    </linearGradient>
    <filter id="blur-silk-scrunchie-set-multi" x="-20%" y="-20%" width="140%" height="140%">
      <feGaussianBlur stdDeviation="16"/>
    </filter>
    <filter id="grain-silk-scrunchie-set-multi" x="0" y="0" width="100%" height="100%">
      <feTurbulence type="fractalNoise" baseFrequency="0.9" numOctaves="3" seed="7" result="n"/>
      <feColorMatrix in="n" type="saturate" values="0"/>
      <feComponentTransfer><feFuncA type="linear" slope="0.055"/></feComponentTransfer>
    </filter>
  </defs>
  <rect width="1000" height="1250" fill="url(#bg-silk-scrunchie-set-multi)"/>
  <ellipse cx="500" cy="400" rx="520" ry="440" fill="url(#glow-silk-scrunchie-set-multi)"/>
  <g transform="translate(-263.0 -380.8) scale(1.5200)">
    
    <path d="M420 520 m-96 0 a96 68 0 1 0 192 0 a96 68 0 1 0 -192 0" fill="none" stroke="url(#g-silk-scrunchie-set-multi)" stroke-width="54" stroke-linecap="round"/><path d="M580 660 m-96 0 a96 68 0 1 0 192 0 a96 68 0 1 0 -192 0" fill="none" stroke="url(#g-silk-scrunchie-set-multi)" stroke-width="54" stroke-linecap="round"/><path d="M500 810 m-96 0 a96 68 0 1 0 192 0 a96 68 0 1 0 -192 0" fill="none" stroke="url(#g-silk-scrunchie-set-multi)" stroke-width="54" stroke-linecap="round"/>
  </g>
  <rect width="1000" height="1250" filter="url(#grain-silk-scrunchie-set-multi)" opacity=".9"/>
</svg>