<svg xmlns="http://www.w3.org/2000/svg" viewBox="0 0 1000 1250" width="1000" height="1250" role="img" aria-label="Studio Cap in Sage">
  <defs>
    <linearGradient id="bg-studio-cap-sage" x1="0" y1="0" x2=".3" y2="1">
      <stop offset="0" stop-color="#ecedeb"/><stop offset="1" stop-color="#d7d8d4"/>
    </linearGradient>
    <radialGradient id="glow-studio-cap-sage" cx=".5" cy=".32" r=".62">
      <stop offset="0" stop-color="#ffffff" stop-opacity=".55"/><stop offset="1" stop-color="#ffffff" stop-opacity="0"/>
    </radialGradient>
    <linearGradient id="g-studio-cap-sage" x1=".15" y1="0" x2=".85" y2="1">
      <stop offset="0" stop-color="#a7af9a"/><stop offset=".55" stop-color="#98a189"/><stop offset="1" stop-color="#8c967b"/>
    </linearGradient>
    <filter id="blur-studio-cap-sage" x="-20%" y="-20%" width="140%" height="140%">
      <feGaussianBlur stdDeviation="16"/>
    </filter>
    <filter id="grain-studio-cap-sage" x="0" y="0" width="100%" height="100%">
      <feTurbulence type="fractalNoise" baseFrequency="0.9" numOctaves="3" seed="7" result="n"/>
      <feColorMatrix in="n" type="saturate" values="0"/>
      <feComponentTransfer><feFuncA type="linear" slope="0.055"/></feComponentTransfer>
    </filter>
  </defs>
  <rect width="1000" height="1250" fill="url(#bg-studio-cap-sage)"/>
  <ellipse cx="500" cy="400" rx="520" ry="440" fill="url(#glow-studio-cap-sage)"/>
  <g transform="translate(-212.2 -63.5) scale(1.2473)">
    <path d="M296 636 C296 486 386 392 500 392 C614 392 704 486 704 636 Z" fill="#2b2118" opacity=".13" transform="translate(18 22)" filter="url(#blur-studio-cap-sage)"/>
    <path d="M296 636 C296 486 386 392 500 392 C614 392 704 486 704 636 Z" fill="url(#g-studio-cap-sage)"/><path fill="url(#g-studio-cap-sage)" d="M292 630 L704 630 C796 630 856 674 850 708 C700 720 396 720 292 706 Z"/><path d="M500 396 L500 630" fill="none" stroke="#bbc1b1" stroke-width="3" stroke-linecap="round" opacity=".5"/>
  </g>
  <rect width="1000" height="1250" filter="url(#grain-studio-cap-sage)" opacity=".9"/>
</svg>