<svg xmlns="http://www.w3.org/2000/svg" viewBox="0 0 1200 900" width="1200" height="900" role="img" aria-label="0803 campaign imagery">
  <defs>
    <linearGradient id="sky-journal-3" x1="0" y1="0" x2=".4" y2="1">
      <stop offset="0" stop-color="#e6dfd6"/><stop offset="1" stop-color="#cfc6bd"/>
    </linearGradient>
    <radialGradient id="sun-journal-3" cx=".68" cy=".22" r=".55">
      <stop offset="0" stop-color="#ffffff" stop-opacity=".7"/><stop offset="1" stop-color="#ffffff" stop-opacity="0"/>
    </radialGradient>
    <filter id="grain-journal-3" x="0" y="0" width="100%" height="100%">
      <feTurbulence type="fractalNoise" baseFrequency="0.9" numOctaves="3" seed="7" result="n"/>
      <feColorMatrix in="n" type="saturate" values="0"/>
      <feComponentTransfer><feFuncA type="linear" slope="0.055"/></feComponentTransfer>
    </filter>
  </defs>
  <rect width="1200" height="900" fill="url(#sky-journal-3)"/>
  <ellipse cx="816.0000000000001" cy="198" rx="600" ry="306" fill="url(#sun-journal-3)"/>
  <path d="M0 323.4101851851852 C 294.2664609053498 136.47453703703704 768.8374485596707 403.52546296296293 1200 203.23726851851853 L 1200 900 L 0 900 Z" fill="#e6dfd6" opacity="0.95"/>
  <path d="M0 464.7606481481481 C 315.3065843621399 271.34837962962956 886.5727880658437 547.6516203703703 1200 340.4241898148148 L 1200 900 L 0 900 Z" fill="#cfc6bd" opacity="0.89"/>
  <path d="M0 611.0277777777778 C 402.4578189300411 393.93055555555554 728.613683127572 704.0694444444445 1200 471.46527777777777 L 1200 900 L 0 900 Z" fill="#adaaa4" opacity="0.83"/>
  <path d="M0 741.211574074074 C 415.7201646090535 556.7210648148147 719.960133744856 820.2789351851851 1200 622.6105324074073 L 1200 900 L 0 900 Z" fill="#8b8a86" opacity="0.77"/>
  <path d="M0 870.3120370370369 C 455.093621399177 722.2199074074073 685.6121399176956 933.7800925925925 1200 775.1099537037036 L 1200 900 L 0 900 Z" fill="#65666a" opacity="0.71"/>
  <rect width="1200" height="900" filter="url(#grain-journal-3)" opacity=".9"/>
</svg>